<mxfile host="Electron" modified="2023-09-17T07:19:02.013Z" agent="Mozilla/5.0 (Windows NT 10.0; Win64; x64) AppleWebKit/537.36 (KHTML, like Gecko) draw.io/21.6.8 Chrome/114.0.5735.289 Electron/25.5.0 Safari/537.36" etag="KRvStHejpxR4o0rX7TWO" version="21.6.8" type="device">
  <diagram name="Page-1" id="D7Dfw3xrCCx1EyUc7JBO">
    <mxGraphModel dx="1098" dy="708" grid="1" gridSize="10" guides="1" tooltips="1" connect="1" arrows="1" fold="1" page="1" pageScale="1" pageWidth="850" pageHeight="1100" math="0" shadow="0">
      <root>
        <mxCell id="0" />
        <mxCell id="1" parent="0" />
        <mxCell id="9IEwd4xi99XItWoi7cWV-6" value="ZeroMate.exe" style="verticalAlign=top;align=left;spacingTop=8;spacingLeft=2;spacingRight=12;shape=cube;size=10;direction=south;fontStyle=4;html=1;whiteSpace=wrap;shadow=1;" parent="1" vertex="1">
          <mxGeometry x="547" y="199.5" width="166" height="170" as="geometry" />
        </mxCell>
        <mxCell id="gEglg_TbTccUnyjp9R45-16" value="" style="rounded=0;whiteSpace=wrap;html=1;shadow=1;" parent="1" vertex="1">
          <mxGeometry x="130" y="295" width="136" height="50" as="geometry" />
        </mxCell>
        <mxCell id="gEglg_TbTccUnyjp9R45-15" value="" style="rounded=0;whiteSpace=wrap;html=1;shadow=1;" parent="1" vertex="1">
          <mxGeometry x="137" y="287.5" width="136" height="50" as="geometry" />
        </mxCell>
        <mxCell id="gEglg_TbTccUnyjp9R45-2" value="" style="verticalAlign=top;align=left;spacingTop=8;spacingLeft=2;spacingRight=12;shape=cube;size=10;direction=south;fontStyle=4;html=1;whiteSpace=wrap;shadow=1;" parent="1" vertex="1">
          <mxGeometry x="369" y="200" width="120" height="90" as="geometry" />
        </mxCell>
        <mxCell id="gEglg_TbTccUnyjp9R45-3" value="&amp;lt;&amp;lt;device&amp;gt;&amp;gt;&lt;br&gt;&lt;b&gt;Host machine&lt;/b&gt;&lt;br&gt;{ OS = Windows | Linux | MacOC }" style="text;html=1;strokeColor=none;fillColor=none;align=center;verticalAlign=middle;whiteSpace=wrap;rounded=0;fontFamily=Computer Modern;" parent="1" vertex="1">
          <mxGeometry x="376" y="231" width="100" height="30" as="geometry" />
        </mxCell>
        <mxCell id="gEglg_TbTccUnyjp9R45-4" value="" style="rounded=0;whiteSpace=wrap;html=1;shadow=1;" parent="1" vertex="1">
          <mxGeometry x="143" y="200" width="130" height="50" as="geometry" />
        </mxCell>
        <mxCell id="gEglg_TbTccUnyjp9R45-8" value="" style="shape=note;size=9;whiteSpace=wrap;html=1;" parent="1" vertex="1">
          <mxGeometry x="241" y="213" width="19" height="23" as="geometry" />
        </mxCell>
        <mxCell id="gEglg_TbTccUnyjp9R45-9" value="&amp;lt;&amp;lt;artifact&amp;gt;&amp;gt;&lt;br&gt;&lt;b&gt;zero_mate.exe&lt;/b&gt;" style="text;html=1;strokeColor=none;fillColor=none;align=center;verticalAlign=middle;whiteSpace=wrap;rounded=0;fontFamily=Computer Modern;" parent="1" vertex="1">
          <mxGeometry x="165" y="209.5" width="60" height="30" as="geometry" />
        </mxCell>
        <mxCell id="gEglg_TbTccUnyjp9R45-10" value="" style="endArrow=classic;html=1;rounded=0;entryX=0;entryY=0;entryDx=50;entryDy=120;entryPerimeter=0;exitX=1.008;exitY=0.587;exitDx=0;exitDy=0;exitPerimeter=0;dashed=1;" parent="1" source="gEglg_TbTccUnyjp9R45-4" target="gEglg_TbTccUnyjp9R45-2" edge="1">
          <mxGeometry width="50" height="50" relative="1" as="geometry">
            <mxPoint x="219" y="370" as="sourcePoint" />
            <mxPoint x="269" y="320" as="targetPoint" />
          </mxGeometry>
        </mxCell>
        <mxCell id="gEglg_TbTccUnyjp9R45-11" value="&lt;font face=&quot;Computer Modern&quot;&gt;&amp;lt;&amp;lt;deploy&amp;gt;&amp;gt;&lt;/font&gt;" style="edgeLabel;html=1;align=center;verticalAlign=middle;resizable=0;points=[];" parent="gEglg_TbTccUnyjp9R45-10" vertex="1" connectable="0">
          <mxGeometry x="-0.0893" y="-1" relative="1" as="geometry">
            <mxPoint as="offset" />
          </mxGeometry>
        </mxCell>
        <mxCell id="gEglg_TbTccUnyjp9R45-12" value="" style="rounded=0;whiteSpace=wrap;html=1;shadow=1;" parent="1" vertex="1">
          <mxGeometry x="143" y="280" width="136" height="50" as="geometry" />
        </mxCell>
        <mxCell id="gEglg_TbTccUnyjp9R45-13" value="" style="shape=note;size=9;whiteSpace=wrap;html=1;" parent="1" vertex="1">
          <mxGeometry x="250" y="293" width="19" height="23" as="geometry" />
        </mxCell>
        <mxCell id="gEglg_TbTccUnyjp9R45-14" value="&amp;lt;&amp;lt;artifact&amp;gt;&amp;gt;&lt;br&gt;&lt;b&gt;ext_periph_01.dll&lt;/b&gt;" style="text;html=1;strokeColor=none;fillColor=none;align=center;verticalAlign=middle;whiteSpace=wrap;rounded=0;fontFamily=Computer Modern;" parent="1" vertex="1">
          <mxGeometry x="165" y="289.5" width="60" height="30" as="geometry" />
        </mxCell>
        <mxCell id="gEglg_TbTccUnyjp9R45-17" value="" style="endArrow=classic;html=1;rounded=0;entryX=0.832;entryY=0.997;entryDx=0;entryDy=0;entryPerimeter=0;exitX=1;exitY=0.5;exitDx=0;exitDy=0;dashed=1;" parent="1" source="gEglg_TbTccUnyjp9R45-12" target="gEglg_TbTccUnyjp9R45-2" edge="1">
          <mxGeometry width="50" height="50" relative="1" as="geometry">
            <mxPoint x="274" y="260" as="sourcePoint" />
            <mxPoint x="379" y="260" as="targetPoint" />
          </mxGeometry>
        </mxCell>
        <mxCell id="gEglg_TbTccUnyjp9R45-18" value="&lt;font face=&quot;Computer Modern&quot;&gt;&amp;lt;&amp;lt;deploy&amp;gt;&amp;gt;&lt;/font&gt;" style="edgeLabel;html=1;align=center;verticalAlign=middle;resizable=0;points=[];" parent="gEglg_TbTccUnyjp9R45-17" vertex="1" connectable="0">
          <mxGeometry x="-0.0893" y="-1" relative="1" as="geometry">
            <mxPoint as="offset" />
          </mxGeometry>
        </mxCell>
        <mxCell id="gEglg_TbTccUnyjp9R45-19" value="External peripherals &lt;br&gt;(buttons, LED, OLED display)" style="shape=note;size=20;whiteSpace=wrap;html=1;shadow=1;fontFamily=Computer Modern;" parent="1" vertex="1">
          <mxGeometry x="344.5" y="319.5" width="163" height="50" as="geometry" />
        </mxCell>
        <mxCell id="gEglg_TbTccUnyjp9R45-21" value="" style="endArrow=none;dashed=1;html=1;rounded=0;entryX=0;entryY=0.5;entryDx=0;entryDy=0;entryPerimeter=0;" parent="1" target="gEglg_TbTccUnyjp9R45-19" edge="1">
          <mxGeometry width="50" height="50" relative="1" as="geometry">
            <mxPoint x="289" y="330" as="sourcePoint" />
            <mxPoint x="259" y="430" as="targetPoint" />
          </mxGeometry>
        </mxCell>
        <mxCell id="9IEwd4xi99XItWoi7cWV-1" value="" style="endArrow=none;html=1;rounded=0;strokeColor=#ca9230;" parent="1" edge="1">
          <mxGeometry width="50" height="50" relative="1" as="geometry">
            <mxPoint x="528" y="380" as="sourcePoint" />
            <mxPoint x="528" y="190" as="targetPoint" />
          </mxGeometry>
        </mxCell>
        <mxCell id="9IEwd4xi99XItWoi7cWV-4" style="edgeStyle=orthogonalEdgeStyle;rounded=0;orthogonalLoop=1;jettySize=auto;html=1;exitX=0.5;exitY=1;exitDx=0;exitDy=0;exitPerimeter=0;entryX=0;entryY=0;entryDx=75;entryDy=14;entryPerimeter=0;dashed=1;endArrow=open;endFill=0;" parent="1" source="9IEwd4xi99XItWoi7cWV-2" target="9IEwd4xi99XItWoi7cWV-3" edge="1">
          <mxGeometry relative="1" as="geometry">
            <Array as="points">
              <mxPoint x="633" y="310" />
              <mxPoint x="633" y="310" />
            </Array>
            <mxPoint x="650" y="289.5" as="sourcePoint" />
            <mxPoint x="650" y="331" as="targetPoint" />
          </mxGeometry>
        </mxCell>
        <mxCell id="9IEwd4xi99XItWoi7cWV-5" value="&lt;font face=&quot;Computer Modern&quot;&gt;&amp;lt;&amp;lt;use&amp;gt;&amp;gt;&lt;/font&gt;" style="edgeLabel;html=1;align=center;verticalAlign=middle;resizable=0;points=[];" parent="9IEwd4xi99XItWoi7cWV-4" vertex="1" connectable="0">
          <mxGeometry x="0.0754" relative="1" as="geometry">
            <mxPoint x="25" y="-3" as="offset" />
          </mxGeometry>
        </mxCell>
        <mxCell id="9IEwd4xi99XItWoi7cWV-2" value="GUI (frontend)" style="shape=folder;fontStyle=0;spacingTop=10;tabWidth=40;tabHeight=14;tabPosition=left;html=1;whiteSpace=wrap;fontFamily=Computer Modern;shadow=1;" parent="1" vertex="1">
          <mxGeometry x="578" y="238.5" width="110" height="50" as="geometry" />
        </mxCell>
        <mxCell id="9IEwd4xi99XItWoi7cWV-3" value="Core (backend)" style="shape=folder;fontStyle=0;spacingTop=10;tabWidth=40;tabHeight=14;tabPosition=left;html=1;whiteSpace=wrap;fontFamily=Computer Modern;shadow=1;" parent="1" vertex="1">
          <mxGeometry x="558" y="306" width="110" height="50" as="geometry" />
        </mxCell>
      </root>
    </mxGraphModel>
  </diagram>
</mxfile>
